<?xml version="1.0" encoding="utf-8"?>
<svg viewBox="0 0 265.62 170.69" width="265.62" height="170.69" xmlns="http://www.w3.org/2000/svg">
  <defs>
    <clipPath id="A">
      <path d="M-1.27-23.88h271.5v194.03H-1.27z" fill="none"/>
    </clipPath>
  </defs>
  <g clip-path="url(#A)" transform="matrix(1, 0, 0, 1, 0, 0)">
    <path d="M-.3 152.83a6.67 6.67 0 0 0-5.95.68c-1.66 1.1-2.74 2.9-4.33 4.1-1.13.86-2.57 1.5-3.12 2.8a7.39 7.39 0 0 0-.25 2.82c0 4-2.43 7.8-1.63 11.68a19.85 19.85 0 0 0 1.84 4.43 27.78 27.78 0 0 1 2.37 7.81 16.16 16.16 0 0 0 .87 4.22c.9 2.1 2.8 3.53 4.6 4.87 2.76 2.05 5.62 4.13 9 5 6.37 1.66 13.4-1.78 17-7.3a1.09 1.09 0 0 0 .24-.66 1 1 0 0 0-.34-.58c-1.65-1.7-4.16-2.16-6.4-2.9s-4.64-2.28-4.86-4.64a7.72 7.72 0 0 1 1.21-4.06c1.9-3.8 3.45-8.12 2.45-12.25a18 18 0 0 0-3-6A44.29 44.29 0 0 0 4.46 157c-1.5-1.5-2.68-3.44-4.76-4.2" fill="#f5a41d"/>
    <path d="M-9.64 108.1a36.89 36.89 0 0 0-8.5 13.52 24 24 0 0 0 0 15.8c.86 2.32 2.16 4.53 2.44 7 .16 1.44 0 2.9.1 4.34a.94.94 0 0 0 .36.77.91.91 0 0 0 .49.07c4.42-.18 8.85-2.7 13.06-1.34 1.66.54 3.52 1.64 5 .7s1.34-3.55 2.83-4.65a18.77 18.77 0 0 1 2.29-1 4.06 4.06 0 0 0 1.9-3.1 11.88 11.88 0 0 0-.29-3.75l-1.63-8.9c-1-5.7-2.27-11.87-6.34-16.27-3.3-3.54-7.18-7.92-11.68-3.2" fill="#e33626"/>
    <path d="M.6 76.06a13.1 13.1 0 0 0-1.24 4.27 5.58 5.58 0 0 0 1.22 4.16 3.6 3.6 0 0 0 4.05 1c3.56-1.65 6.6-7.74 4.84-11.5-2.3-4.9-7.36-1.4-8.87 2" fill="#e75225"/>
    <path d="M15.48 88.42A7.17 7.17 0 0 0 4.3 89.65c-1.24 2-1.44 4.46-2.45 6.58-.75 1.58-2 3-2.17 4.73a6.33 6.33 0 0 0 .73 3.45 13.78 13.78 0 0 0 5.81 5.8c1.78 1 4 1.7 5.8.88a7.56 7.56 0 0 0 1.63-1 23.51 23.51 0 0 0 5-5 10.2 10.2 0 0 0 1.93-6.66c-.28-2.72-1.94-5.08-3.55-7.3-1.3-1-.38-1.5-1.53-2.68m5.72 17.9a42 42 0 0 0-2.39 4.66 18.6 18.6 0 0 0-.83 5.3 88 88 0 0 0 .5 14.87 9.44 9.44 0 0 0 .73 3.08 3.53 3.53 0 0 0 2.32 2c1.2.25 2.4-.35 3.6-.72 2.3-.7 4.88-.56 6.93-1.8a8.55 8.55 0 0 0 3.3-4.56c.63-1.8.93-3.7 1.47-5.55 1-3.44 2.87-6.86 2.2-10.38-.5-2.68-2.37-4.8-3.73-7.07-1.07-1.8-1.9-4.05-3.52-5.44a5.49 5.49 0 0 0-5.41-.67c-2.8 1-3.85 3.86-5.12 6.27" fill="#e33626"/>
    <path d="M22.14 90a17.94 17.94 0 0 1 .6 2.23 24.29 24.29 0 0 0 0 2.83 3.38 3.38 0 0 0 1.84 2.21 6.58 6.58 0 0 0 2.88.59 4.19 4.19 0 0 0 1.72-.26 4 4 0 0 0 1.57-1.45C33 93 33.46 86.77 30.16 84c-3.76-3.16-9 1.9-8 6m12.74 6a17.52 17.52 0 0 0 .57 4.82c.4 1.84 1 3.9 2.64 4.77s4-.06 5.37-1.5c2.58-2.65 3.88-8.77.9-11.65A5.54 5.54 0 0 0 34.9 96m6.6 17.83a4 4 0 0 0 .63 2.36c2.23 3.25 6.56-.86 5.86-3.8-1-4.12-6.4-2.28-6.5 1.44" fill="#e75225"/>
    <path d="M42.1 123.54a64.24 64.24 0 0 0-2.69 10.26 8 8 0 0 0-.17 3.61 7.6 7.6 0 0 0 1.33 2.41l4 5.27a10.29 10.29 0 0 0 3.83 3.36 10.82 10.82 0 0 0 3.72.59 12.05 12.05 0 0 0 4.86-.53c2.85-1.15 4.42-4.3 4.9-7.34a17.34 17.34 0 0 0-.65-8.15 34.93 34.93 0 0 0-4.42-8c-1.12-1.7-2.1-3.7-3.68-5a7.15 7.15 0 0 0-5.41-1.42c-3.07.24-4.62 2.27-5.67 5M22.4 139.74c-2.13.54-4.44 1.2-5.74 3a9.49 9.49 0 0 0-1.29 3c-1.34 4.5-2.68 9.17-1.92 13.8a17.63 17.63 0 0 0 5.54 9.91 23.59 23.59 0 0 0 10.1 5.36 10.76 10.76 0 0 0 3.78.42 11.13 11.13 0 0 0 5.12-2.29 22.1 22.1 0 0 0 7.63-9.09 14 14 0 0 0-.11-11.64 38.46 38.46 0 0 0-2.84-4.26c-1.52-2.22-2.72-4.65-4.42-6.73-1.53-1.86-4-4-6.6-3.85-3 .2-6.35 1.64-9.27 2.38M41 174.43a9.15 9.15 0 0 0-1.41 6.27c.3 1.58 1.42 3.2 3 3.27s2.93-1.4 4.54-1.5c1.9-.13 3.36 1.6 5.1 2.37 1.34.58 2.88.57 4.23 1.13.9.36 1.66 1 2.53 1.34a2.91 2.91 0 0 0 2.75 0c1.18-.77 1.14-2.48 1-3.9a11.75 11.75 0 0 0-.73-3.27 4 4 0 0 0-2.34-2.28 9.8 9.8 0 0 1-1.44-.37 3.11 3.11 0 0 1-1.4-2.84 9 9 0 0 0-.31-3.29c-1.1-2.58-6-3.75-8.6-3.4-2.83.38-5.56 4.24-6.9 6.47M55.54 152c-1.82.65-4 1.13-4.87 2.85-.66 1.27-.35 2.8 0 4.2a11.94 11.94 0 0 0 2 4.88c1.43 1.72 3.7 2.54 5.22 4.17s2.1 3.53 3.4 5.12c2.22 2.7 5.9 3.7 9.4 4a9.74 9.74 0 0 0 3-.14 10 10 0 0 0 3-1.43 24.45 24.45 0 0 0 8.56-8.91 8.47 8.47 0 0 0 1.13-3.84 9.32 9.32 0 0 0-1.67-4.72 20 20 0 0 0-6.24-6.7 30.07 30.07 0 0 0-7.16-2.88c-2-.62-4.1-1.82-6.16-2.1-1.64-.22-2.6.53-3.75 1.62a16.85 16.85 0 0 1-5.9 3.92m14.9-19.44c-.5.4-.88 1-1.48 1.2a15.7 15.7 0 0 1-2 .16 2.44 2.44 0 0 0-1.7 2.13 5.88 5.88 0 0 0 .52 2.82 11 11 0 0 0 1.66 3 8.61 8.61 0 0 0 5.38 2.92 8.93 8.93 0 0 0 6.37-1.36 6.93 6.93 0 0 0 3-5.65 5.82 5.82 0 0 0-1.19-3.4 5.05 5.05 0 0 0-2.9-2l-4.13-.7a4.71 4.71 0 0 0-3.59.85m20.86 6.33a14.43 14.43 0 0 0-7.42 4.4c-1.3 1.4-2.42 3.26-2.12 5.17.52 3.23 4.53 4.53 6.34 7.26a8.79 8.79 0 0 0 1.14 1.67c1.28 1.22 3.36.83 5 .28a23.25 23.25 0 0 0 7.08-3.48 10.94 10.94 0 0 0 4.22-6.51 5.17 5.17 0 0 0-.17-2.76c-.88-2.18-4-3.87-6.06-4.9a12.08 12.08 0 0 0-8-1.13" fill="#f5a41d"/>
    <path d="M83.7 133.9a7.86 7.86 0 0 0 1.51 2.16 4.31 4.31 0 0 0 1.33 1 4.83 4.83 0 0 0 2.36.19c4.65-.45 6.9-4.87 4.9-9.15-1.75-3.73-6.94-3.6-9.3-.52a6.31 6.31 0 0 0-.79 6.32" fill="#e33626"/>
    <path d="M98 157.7c3.53-1.7 6.86-4 10.7-4.76a25.51 25.51 0 0 1 6.82-.2 29.1 29.1 0 0 1 7.76 1.4 14.51 14.51 0 0 1 9 9.09 11.27 11.27 0 0 1-3.54 11.95 15.42 15.42 0 0 1-3.78 2c-5.07 2-10.56 2.83-15.56 5a23.29 23.29 0 0 1-4.78 1.82c-3.16.6-6.35-.68-9.25-2.06a15.65 15.65 0 0 1-5.74-4c-2.5-3.15-2.46-7.57-2.1-11.58.2-2.16.42-5.52 2.8-6.3 2.58-.83 5.13-1.16 7.66-2.4" fill="#f5a41d"/>
    <path d="M146.68 152.44c-3 1.35-5.05 4-7 6.6a24.63 24.63 0 0 0-3.9 6.27c-.64 1.75-.88 3.64-1.53 5.4s-1.8 3.83-.86 5.53a5.75 5.75 0 0 0 1.54 1.57 25.77 25.77 0 0 1 6.25 7.12c.87 1.53 1.58 3.2 2.94 4.3a5.37 5.37 0 0 0 4.6 1c2.05-.5 3.6-2.17 5.42-3.23 2.74-1.6 6-1.8 9.1-2.6a23.33 23.33 0 0 0 8.34-4.11 11.46 11.46 0 0 0 3.27-3.63 15.34 15.34 0 0 0 1.26-4.42 35.62 35.62 0 0 0 .75-7.48 12.34 12.34 0 0 0-2.29-7.06c-1-1.26-2.25-2.24-3.32-3.4l-2.43-2.76a11.82 11.82 0 0 0-6.58-2.84c-2.45-.32-5.87-.63-8.1.6-2.42 1.35-4.94 2-7.45 3.13M167.4 135a8.93 8.93 0 0 0-2.07 8.16 11.29 11.29 0 0 0 5.16 6.83 7.08 7.08 0 0 0 3.16 1.15 6 6 0 0 0 2.73-.51 7.62 7.62 0 0 0 4.35-5.13 15.08 15.08 0 0 0 .27-3.68c0-2-.06-4.06-1.07-5.76-2.42-4.06-9.4-4.3-12.53-1.06m17.5-6.2a8.58 8.58 0 0 0-1.36 9.53 3.45 3.45 0 0 0 1.44 1.6 4.31 4.31 0 0 0 1.71.33c3.34.17 7.07.2 9.52-2.06a6.81 6.81 0 0 0 2-5.93c-1-6.5-9.17-7.9-13.34-3.47m18.33 2.52c-1.46.87-2.08 2.65-2.4 4.32a23.9 23.9 0 0 0-.43 4.46 8 8 0 0 0 .5 3.22 3.55 3.55 0 0 0 2.32 2.15c1.56.37 3.07-.67 4.62-1.1a10.91 10.91 0 0 0 3.12-.91 4.81 4.81 0 0 0 1.8-2.78 8.35 8.35 0 0 0 .19-4.72c-1-3.33-6.45-6.56-9.72-4.64m-5.3 12.88a6 6 0 0 0-4.07-1.28 39.34 39.34 0 0 0-4.34.26 7.47 7.47 0 0 0-7.44 4.42l-4.2 6.84a5.32 5.32 0 0 0-.47 5.66c.52 1.67 1.15 3.48 2.63 4.4a5.5 5.5 0 0 0 3.17.69 10.49 10.49 0 0 0 3.41-.67c1.4-.52 2.68-1.32 4-1.9l2.67-1.1c3.36-1.7 5.72-5.48 7.08-8.9 1.05-2.64-.5-6.55-2.48-8.42m7.44 3.53a4.89 4.89 0 0 0-2.13 1.49c-.85 1.18-.64 2.8-.85 4.23-.3 2-1.43 3.72-2.24 5.55a3.44 3.44 0 0 0-.4 1.68 3.4 3.4 0 0 0 .95 1.86 14.33 14.33 0 0 0 3.66 3.1 5 5 0 0 0 2.35.83 5.92 5.92 0 0 0 3.13-1.14l4-2.72a8.65 8.65 0 0 0 2.21-2.14c.84-1.33 1-3 1.4-4.5.5-1.7 1.48-3.3 1.63-5.06a11.11 11.11 0 0 0-.51-3.65c-.74-2.9-3.2-1.88-5.6-1.6a25.56 25.56 0 0 0-7.63 2.07m-12.03 16.43a49.55 49.55 0 0 1-8.83 3.12c-1.87.47-3.94.95-5 2.52a10.75 10.75 0 0 0-1.16 3.2c-1 3.3-3.25 6-4.9 9a3.28 3.28 0 0 0-.48 1.34c-.1 1.46 1.47 2.37 2.7 3.17a12 12 0 0 1 4.32 5.05c.95 2.08 1.53 4.7 3.63 5.6 1.74.75 3.8-.1 5.24-1.33s2.58-2.82 4.12-3.93c2.55-1.85 6-2.2 8.43-4.2s3.4-5.23 4.25-8.26a15.2 15.2 0 0 0 .75-4 10.25 10.25 0 0 0-.68-3.58 14.8 14.8 0 0 0-5.92-7.06 9.92 9.92 0 0 0-2.4-1.64c-1.3-.38-2.88.4-4 .94m25.25-3.1a17.58 17.58 0 0 0-4.22 3.95 30.6 30.6 0 0 0-5.1 7.31 23.07 23.07 0 0 0-1.54 10.06 4.76 4.76 0 0 0 .29 1.8c.62 1.5 2.46 2.1 4.07 2s3.16-.68 4.77-.8a26.23 26.23 0 0 0 3.55-.21c2-.45 3.5-2 4.7-3.66a27.47 27.47 0 0 0 4.85-11 10.79 10.79 0 0 0-.22-6.12c-1.72-4.2-7.44-5.5-11.15-3.34m3.24-8.72a6.17 6.17 0 0 0 2.13 3.25c1.44.94 3.34.62 5 .13a29.1 29.1 0 0 0 4.07-1.59 10.33 10.33 0 0 0 3.34-2.3 4.65 4.65 0 0 0 1.26-3.73 7 7 0 0 0-2.07-3.42c-3.06-3.32-6.66-6.46-11.3-7.1-5.18-.72-4.92 3.58-4.3 7.46a39.29 39.29 0 0 0 1.9 7.31m7.07 5.95a2.14 2.14 0 0 0-.77 1.2 2.17 2.17 0 0 0 .72 1.63 13.41 13.41 0 0 0 8.71 4.44 9.27 9.27 0 0 0 7.08-2 5.81 5.81 0 0 0 1.43-6.87 7.18 7.18 0 0 0-4.09-3.25c-1.14-.23-2.28.37-3.37.63-3.5.8-7 1.7-9.7 4.23m12.67 9.5c-1.8.43-4 .56-4.87 2.18-.62 1.15-.26 2.6-.68 3.84a6.33 6.33 0 0 1-1.79 2.39l-3.52 3.4a14.81 14.81 0 0 0-3.84 4.94c-.76 2-.5 4.5 1.16 5.77a10.48 10.48 0 0 0 1.9 1c3.33 1.62 5.83 5.2 5.48 8.88a18.69 18.69 0 0 0-.23 2.35 2.37 2.37 0 0 0 1 2 3.08 3.08 0 0 0 2.08.1 16.49 16.49 0 0 0 7.3-3.38 11.67 11.67 0 0 0 4.06-6.85 25.79 25.79 0 0 1 .55-3.52 3.19 3.19 0 0 1 2.43-2.36c1-.1 2.08.54 3.13.4a4.27 4.27 0 0 0 2.5-1.89c2.63-3.34 5.3-6.77 6.6-10.8a7.13 7.13 0 0 0 .05-5.16 8.56 8.56 0 0 0-2.08-2.49q-3.75-3.45-7.77-6.56a9.63 9.63 0 0 0-3.91-2.14c-1.76-.3-1.76 1.2-2.56 2.5a11.65 11.65 0 0 1-7 5.39" fill="#ec7a23"/>
    <path d="M182 122.28a3.6 3.6 0 0 0 .52 1.62 3.22 3.22 0 0 0 2.91 1 8.85 8.85 0 0 0 4.14-1.4c2.66-1.73 2.9-6.5-.88-6.93-3.38-.38-7.12 2.25-6.7 5.73" fill="#e33626"/>
    <path d="M169 127.25a6.28 6.28 0 0 0-2 1.7 2.8 2.8 0 0 0-.83 2.45 2.12 2.12 0 0 0 2.1 1.26 8.25 8.25 0 0 0 2.52-.67c1.48-.53 5.3-1.83 4.1-4.17-.88-1.72-4.52-1.23-5.88-.57m4.4-6.83a2.38 2.38 0 0 0-1.19 2.41 1.85 1.85 0 0 0 .32.68 2.84 2.84 0 0 0 1.48 1c5.84 1.66 3.3-6.5-.6-4" fill="#ec7a23"/>
    <path d="M181.7 110.9a10.34 10.34 0 0 0-5.46 2.43 1.2 1.2 0 0 0-.39.5 1.1 1.1 0 0 0 0 .62 3.88 3.88 0 0 0 4.08 2.67 4.69 4.69 0 0 0 2.84-1.63 3.54 3.54 0 0 0 .88-1.65 2 2 0 0 0-.47-1.77" fill="#e33626"/>
    <path d="M178 127.08a3.27 3.27 0 0 0-1.61 2.47 2.59 2.59 0 0 0 2.51 2.45 4.17 4.17 0 0 0 3.31-1.61 3.23 3.23 0 0 0 .87-1.94c0-1.48.48-2-1.3-2.3a5.46 5.46 0 0 0-3.73 1" fill="#ec7a23"/>
    <path d="M165.55 117.3a1.88 1.88 0 0 0 .26 1.08c1.6 2.94 6.57 1.2 6-2.06s-5.95-1.64-6.26 1" fill="#e33626"/>
    <path d="M165.4 123.1a4.52 4.52 0 0 0-1.92 1.65 2.29 2.29 0 0 0-.47 1.9 1.91 1.91 0 0 0 2.66.82 5 5 0 0 0 2-2.4c1-2-.4-2.77-2.26-2M157 135l-.43 3.1a1 1 0 0 0 0 .66 1.06 1.06 0 0 0 .37.29 5.7 5.7 0 0 0 3.48 1c3.3-.5 3.63-5.47 2.67-7.92a2.41 2.41 0 0 0-3.45-1.33c-1.66.7-2.37 2.53-2.67 4.18m-3.04 8.6a3.24 3.24 0 0 0-1.06 1.45 1.83 1.83 0 0 0 .3 1.72 2.23 2.23 0 0 0 1.8.6c.65 0 1.3-.2 1.95-.23a14 14 0 0 0 2.05 0c1.95-.3 3-2.87 1.35-4.1a5.52 5.52 0 0 0-6.39.51" fill="#ec7a23"/>
    <path d="M157.85 116.7a3.32 3.32 0 0 0-1.15 1.7 2.57 2.57 0 0 0 .07 2.43 2.61 2.61 0 0 0 1.49.76c5.15 1.16 3.38-7.33-.4-4.9m-7.4 9.48a1.54 1.54 0 0 0-.4.51 1.43 1.43 0 0 0 0 1c.78 2.36 4.76 1.8 5.43-.37.9-2.93-3.7-2.34-5-1.14" fill="#e33626"/>
    <path d="M148 132.74a2.83 2.83 0 0 0-1.43.95 2.19 2.19 0 0 0-.24 1.49 2.84 2.84 0 0 0 .46 1.22c1.7 2.32 5.16.07 6.13-1.82 1.57-3.05-3.35-2.47-4.92-1.84m-12.93.8a3.7 3.7 0 0 0-1.46 1.23 6.59 6.59 0 0 0-.21 6.83 3 3 0 0 0 2.4 1.83 7.85 7.85 0 0 0 4.74-.46 6.17 6.17 0 0 0 3.26-3.4c.65-1.74.78-6.23-1.57-6.88-.86-.24-1.95.36-2.8.46-1.43.16-3-.2-4.36.4m10 10.75a15.58 15.58 0 0 0-3.53 1.29 3.88 3.88 0 0 0-1.75 1.24 2.56 2.56 0 0 0-.2 2.18 5.82 5.82 0 0 0 1.18 1.91 2 2 0 0 0 .83.68 2.09 2.09 0 0 0 1.11 0 20.45 20.45 0 0 0 3.88-1.26 6.07 6.07 0 0 0 2.89-2.23c1.9-3.17-2-4.25-4.4-3.8" fill="#ec7a23"/>
    <path d="M144.53 125.6a3.67 3.67 0 0 1 3.11.29 1 1 0 0 1 .49.46 1.22 1.22 0 0 1 0 .57c-.2 1.8-1.38 4.8-3.8 3.6a2.76 2.76 0 0 1 .16-4.91m3.6-6.6a1.7 1.7 0 0 0-.61 1.06 2.2 2.2 0 0 0 .21 1 6.86 6.86 0 0 0 .94 1.85 2.31 2.31 0 0 0 1.77 1 2.51 2.51 0 0 0 1.24-.41 4.58 4.58 0 0 0 1.75-2c1.65-3.56-3.24-4.46-5.3-2.5m-8.8 1.62a3.43 3.43 0 0 0 0 2.58 2.06 2.06 0 0 0 1 1.47 2.09 2.09 0 0 0 1.35-.06c1.86-.52 4.52-2.28 3.07-4.6-1.07-1.7-4.5-1-5.38.6m-5.06-1.7a13.5 13.5 0 0 0-1.9-.14 2.56 2.56 0 0 0-2.24.87c-.52.83-.06 1.9.42 2.73a2.77 2.77 0 0 0 .9 1.1 2.12 2.12 0 0 0 2.29-.27c1-.7 2.56-4 .53-4.3m5.95 7.9a2 2 0 0 0-.46-.74 1.41 1.41 0 0 0-.79-.31c-1.36-.13-2.5 1-3.37 2a1.53 1.53 0 0 0-.38.65 1.23 1.23 0 0 0 .08.68 3.17 3.17 0 0 0 2.88 2.14 2.85 2.85 0 0 0 2.55-1.61c.47-1.07-.07-1.82-.5-2.84m-7.04 1.1a1.81 1.81 0 0 0-.37-.73c-1.92-1.92-5.28 2.87-3.27 5 2.6 2.77 4.3-2.12 3.64-4.28M122.8 143a5.68 5.68 0 0 0 2.23 1.82 3.44 3.44 0 0 0 1.83.07c3.28-.66 4.4-5.3.95-6.67-2.34-.94-7.1 2.34-5 4.78" fill="#e33626"/>
    <path d="M131.35 149a4.38 4.38 0 0 0-3 3.34 4.52 4.52 0 0 0 .94 3.23 10.56 10.56 0 0 0 2.54 2.31 3.17 3.17 0 0 0 2.21.79 3.35 3.35 0 0 0 2-1.65c1.18-1.72 3.64-4.48 2.1-6.67-1.3-1.82-4.83-2-6.72-1.35" fill="#ec7a23"/>
    <path d="M114.7 145.5a2.88 2.88 0 0 1-.75.56 2.43 2.43 0 0 1-1.17.05 5.57 5.57 0 0 0-4.41 1.09 3.59 3.59 0 0 0-1 1.76 2.16 2.16 0 0 0 .31 1.9c.73.87 2.1.64 3.2.46a17.27 17.27 0 0 1 5.87 0 13.91 13.91 0 0 0 4.78.51c2.68-.45 4-3.92 1.8-5.78s-6.42-2.43-8.62-.57m-9.7-6.9a5.26 5.26 0 0 0 .61 3.1 3.4 3.4 0 0 0 1.51 1.68 3.52 3.52 0 0 0 2.27.06c2.66-.6 5-4.46 2.25-6.57-2.12-1.63-6.2-1.33-6.64 1.73m-9-1.38a5 5 0 0 0 3.94 1.72c3.78-.26 5.77-5.8 2.1-7.72-3-1.54-8.48 3.32-6 6" fill="#e33626"/>
    <path d="M55.44 110.87a16.13 16.13 0 0 1 2.24 1.79 4.48 4.48 0 0 1 1.12 1.51 4.17 4.17 0 0 1 .21 1.65c0 1.38-.6 3-1.9 3.4a4.22 4.22 0 0 1-2.67-.32c-1.37-.48-2.9-1.13-3.36-2.5-.68-2.14 1.64-7.3 4.36-5.5m5.88-9.6a5.48 5.48 0 0 1 .83 3.48c-.45 3.66-6.27 4.9-6.88.83-.44-2.9 3.67-8.15 6-4.3m-2.2-11.25a3.83 3.83 0 0 0-.79 2.81 2.94 2.94 0 0 0 .44 1 4.23 4.23 0 0 0 5.85 1.22c4.7-3.15-1.6-10.9-5.5-5m5.6 10.1a3 3 0 0 0-.74 1c-.3 1 .46 1.94 1.2 2.66a4.19 4.19 0 0 0 2.4 1.42c3.12.27 5.87-4.18 4.53-6.9-1.93-3.94-5.65 0-7.38 1.77m.42 7.4a1.87 1.87 0 0 0-.94 0 2.7 2.7 0 0 0-.91.56 4.32 4.32 0 0 0-1.91 2.58 3.17 3.17 0 0 0 .33 1.7A6.19 6.19 0 0 0 63.9 115a1.74 1.74 0 0 0 .81.33 1.73 1.73 0 0 0 1.25-.56c2-1.8 2.43-6.37-.86-7.17M63.45 118c2.28 0 4.2 1.76 5.3 3.76a6.19 6.19 0 0 1 .77 2.22c.2 2-1 3.75-2.15 5.32a3.24 3.24 0 0 1-1 .93 2.87 2.87 0 0 1-2.56-.17c-2.15-1-5.15-3.24-4.06-5.86a22.62 22.62 0 0 0 1.42-3c.4-1.5.15-3.22 2.23-3.22m7.6-11.4a1 1 0 0 0-.49.06 2.88 2.88 0 0 0-2 2.22 2.5 2.5 0 0 0 1.32 2.62c1.2.56 4 .48 4.25-1.18.22-1.28-1.92-3.5-3.08-3.72m3.78-3.03a4.27 4.27 0 0 1 2.62-2.2 2.87 2.87 0 0 1 1.2-.1 3.57 3.57 0 0 1 1.45.64 4.16 4.16 0 0 1 1.64 2 3.3 3.3 0 0 1-1.57 3.74c-2.48 1.4-6.86-1-5.34-4.08" fill="#e75225"/>
    <path d="M74.68 113a3.14 3.14 0 0 0-.18 3.34 4.39 4.39 0 0 0 2.76 2 2.48 2.48 0 0 0 1.72-.06c4.9-2.42-1.3-9.17-4.3-5.32m-4.58 1.58a1.06 1.06 0 0 1 .66.15 6.59 6.59 0 0 1 2.68 2.12 3.15 3.15 0 0 1 .24 3.26 1.54 1.54 0 0 1-.46.49 1.65 1.65 0 0 1-.85.21c-1.46.06-4.2-.7-4.74-2.32-.35-1.07 1.46-3.7 2.47-3.9m5.9 8.5a2.39 2.39 0 0 0-1.11 1.32c-.6 2.76 4.48 4 5.52 1.23 1.2-3.24-2.2-4.13-4.4-2.55m6.82-2.45a.64.64 0 0 1-.38-.2 2 2 0 0 1-.17-2.58 3.2 3.2 0 0 1 2.41-1.25.69.69 0 0 1 .63.18.71.71 0 0 1 .09.45v1.26a4.22 4.22 0 0 1-.55 2.41 1.44 1.44 0 0 1-2.15.28m3.7-14.5a4.52 4.52 0 0 0-3.11 1.65 3.2 3.2 0 0 0-.84 1.9c0 1.2.85 2.23 1.7 3.1a2.27 2.27 0 0 0 .72.56 1.76 1.76 0 0 0 .91.08 4.73 4.73 0 0 0 3.31-2c1.6-2.4.48-5.45-2.68-5.27m10 10.32a4.17 4.17 0 0 0 3.31-1 3.47 3.47 0 0 0 .76-3.12 5.63 5.63 0 0 0-1.74-2.8 1.5 1.5 0 0 0-.62-.41 1.87 1.87 0 0 0-.71 0l-3.32.37a2.72 2.72 0 0 0-1.16.32 1.77 1.77 0 0 0-.72 1.57 4.88 4.88 0 0 0 .49 1.74c.85 1.93 1.4 3.3 3.7 3.4m-.92 3a3.78 3.78 0 0 1 1.68-.94 3.71 3.71 0 0 1 2.6-.1 3.29 3.29 0 0 1 1.6 3.34 2.85 2.85 0 0 1-.68 1.78c-2.36 2.46-8-1.13-5.2-4.08m-8.57-1.57a3.35 3.35 0 0 0-.34 3.38 4.57 4.57 0 0 0 3.08 2.11c2.9.75 4.46-2.9 3.6-5.3-1-2.8-4.85-2.24-6.34-.17m19.33 4.58a9.08 9.08 0 0 0-2.38.49 4 4 0 0 0-2.49 3.79 3.22 3.22 0 0 0 3.2 3 4.59 4.59 0 0 0 2-.71 4.27 4.27 0 0 0 1.61-1.4 4 4 0 0 0 .4-2.45c-.2-1.9-.18-2.94-2.34-2.7m4.25-2.97a1.93 1.93 0 0 1 .28-2.3 4.44 4.44 0 0 1 2.18-1.18 3.31 3.31 0 0 1 2.42 0 3.81 3.81 0 0 1 1.2 1.23 2.73 2.73 0 0 1 .37.67 2 2 0 0 1 0 .9 4.93 4.93 0 0 1-3.32 3.89 2.39 2.39 0 0 1-1.65-.09c-1.6-.78-.8-2.1-1.47-3.13m3.38 19.2a2.9 2.9 0 0 1-.13-1.31 4.35 4.35 0 0 1 1.41-3.27 4.19 4.19 0 0 1 3.77-.14 6 6 0 0 1 2 1.11c1.77 1.56 1.05 4.73-1 5.78-1.72.88-5.36-.4-6.1-2.17m5.18-8a2.68 2.68 0 0 1 .21-2.1 2.48 2.48 0 0 1 2.6-.86 7.38 7.38 0 0 1 2.55 1.35 3.44 3.44 0 0 1 1.38 1.5c.5 1.5-.78 4.13-2.5 4.06-1.9-.07-3.83-2.3-4.24-3.95m4.93-6.26a9.1 9.1 0 0 0 3.15-3.8 2.81 2.81 0 0 0 .11-1.57 3.4 3.4 0 0 0-2.44-2.12 4 4 0 0 0-3 0 5 5 0 0 0-1.95 2.71c-.52 1.27 2.5 6.14 4.14 4.78m-13.17 4.16a3.14 3.14 0 0 0 .35 1.34 3.37 3.37 0 0 0 2.06 2c2.4.58 6-3 3.95-5.18-1.65-1.8-6.32-1-6.36 1.84" fill="#e33626"/>
    <path d="M55 81.2a3.61 3.61 0 0 0-1.76 0c-1.28.4-1.9 1.8-2.36 3.07a2.83 2.83 0 0 0-.25 1.27 2.4 2.4 0 0 0 .47 1.07 4.73 4.73 0 0 0 1.55 1.5 6.57 6.57 0 0 0 3 .53 2.06 2.06 0 0 0 .92-.13 2 2 0 0 0 .66-.59 4.69 4.69 0 0 0 1.11-1.78 4.2 4.2 0 0 0 0-1.62c-.3-2.12-1.2-2.9-3.36-3.33m-1.88 9.75a2.93 2.93 0 0 0-1.46.89 7.78 7.78 0 0 0-1.86 3 3 3 0 0 0 0 2.21 3.82 3.82 0 0 0 2.87 1.74c1.67-.1 4-3 4.32-4.53.42-1.9-2.06-3.68-3.84-3.32m-5.83 13.2a2.83 2.83 0 0 0 1.2 4.81 3.31 3.31 0 0 0 2.52.36c2-.75 2.93-3.92 2.26-5.77-1.36-3.74-4.32-2-6 .6m-2.42-27.3a3.49 3.49 0 0 0-.74 2.67 5 5 0 0 0 .76 2.55 2.86 2.86 0 0 0 2.22 1.33 3.65 3.65 0 0 0 2.52-1.2c1.12-1.07 3.12-3.6 1.64-5.1-1.23-1.24-5.14-1.55-6.4-.26m1.27 8.4a3.69 3.69 0 0 0-2 1.31 1.48 1.48 0 0 0-.4.62 1.21 1.21 0 0 0 .05.65 14.91 14.91 0 0 0 2 4.07 1.88 1.88 0 0 0 .46.55c.6.42 1.45 0 2-.58 2.2-2.36 2.13-7.15-2.13-6.62M38.08 79a3.19 3.19 0 0 0-2.14 1 6.91 6.91 0 0 0-1.29 2 2.84 2.84 0 0 0-.35 1.41 3.13 3.13 0 0 0 .58 1.37c.7 1.13 1.54 2.35 2.83 2.68 2.37.6 4.67-2.13 4.63-4.35 0-1.87-2.42-4.23-4.26-4.17m-1.78-8.08a3.25 3.25 0 0 0-1.3 2.88 4.71 4.71 0 0 0 .9 1.89 3.81 3.81 0 0 0 2.23 1.92 3.29 3.29 0 0 0 1.66-.27 4.93 4.93 0 0 0 1.83-1.09 4.14 4.14 0 0 0 1-2.54c.15-1.6 0-2.9-1.56-3.5a5 5 0 0 0-4.77.72M25.15 71.9a4 4 0 0 0-.43 3.36A4.06 4.06 0 0 0 27 77.73a8 8 0 0 0 2.12.41 2.76 2.76 0 0 0 1.18 0c2-.64 2.14-4.6.94-6s-5-1.9-6.13-.2m-10.4 5.62a5.28 5.28 0 0 0-2.54 2.94 1.09 1.09 0 0 0-.06.44 1.11 1.11 0 0 0 .27.5 18.89 18.89 0 0 0 4 3.68 3.71 3.71 0 0 0 2 .78 2.75 2.75 0 0 0 2.24-1.5c.78-1.36 1.76-4.64.9-6.15-1.3-2.3-4.86-1.74-6.8-.7m3.5-13.87a8.05 8.05 0 0 0-3.61 3.64 4.57 4.57 0 0 0-.58 2.22 2.37 2.37 0 0 0 1.06 1.93 3.58 3.58 0 0 0 2.62.12 9.14 9.14 0 0 0 3.06-1.11 10.4 10.4 0 0 0 2.12-2 8.26 8.26 0 0 0 1.57-2.32c1.6-4.13-4.05-3.55-6.27-2.46m8.97 2.3a3.57 3.57 0 0 0 2.39 2.92c3.1.95 5-2.7 3.38-5.15-1.73-2.64-6.15-.88-5.77 2.23M23 51.28a4.81 4.81 0 0 0-1.86 1.83 1.37 1.37 0 0 0-.3.66 1.52 1.52 0 0 0 .16.69 10.64 10.64 0 0 0 3.38 4.22A1.14 1.14 0 0 0 25 59a1.27 1.27 0 0 0 .65-.2 4.39 4.39 0 0 0 1.52-1.13c.72-1 .5-2.33.26-3.53-.37-1.8-2.4-3.72-4.42-2.82m-7.6.1a4.25 4.25 0 0 0-3.51 3.81 5.6 5.6 0 0 0 2.3 4.83 2.29 2.29 0 0 0 .78.43 2.16 2.16 0 0 0 1 0A4.46 4.46 0 0 0 19 58.34a4.15 4.15 0 0 0 .17-3.71c-.75-1.62-1.78-3.44-3.78-3.2M5.9 62a8.56 8.56 0 0 0-5.4 3.88 3.2 3.2 0 0 0-.5 1.21c-.17 1.4 1.28 2.56 2.7 2.62a7.76 7.76 0 0 0 4-1.3l3.2-1.76c1.48-.8 4-2.45 1.85-3.84A8.15 8.15 0 0 0 5.91 62M4 53.1a4.46 4.46 0 0 0-2.69 2.15 3.27 3.27 0 0 0 .19 3.36A3.79 3.79 0 0 0 4 60a4.28 4.28 0 0 0 1.85-.11 4.06 4.06 0 0 0 2.47-2.53c.34-1 .72-3.34-.1-4.1S4.9 52.8 4 53.1m-8.63 5.52a2.36 2.36 0 0 0-1 2.15 3.08 3.08 0 0 0 .84 1.5c.58.66 1.38 1.3 2.22 1.1a2.52 2.52 0 0 0 1.06-.71c1-1 2.6-3.26 1.25-4.64-1-1.07-3.43-.15-4.4.6M9.56 44a6.31 6.31 0 0 0 .51 3.52 2 2 0 0 0 1 1.32 1.43 1.43 0 0 0 .82 0c1.76-.48 3.06-3.94 2.4-5.63-1-2.5-4.3-1.45-4.8.8m13.2 2.74a2.17 2.17 0 0 0-.08-2.16A3.59 3.59 0 0 0 20 42.32a3.05 3.05 0 0 0-2.22.81.76.76 0 0 0-.3.41.83.83 0 0 0 .08.43c.6 1.63 3.12 5.6 5.16 2.78" fill="#e75225"/>
    <path d="M18.27 35.3a5.69 5.69 0 0 0-2.77-2 2.69 2.69 0 0 0-1.5-.11 1.55 1.55 0 0 0-1 .91 2.38 2.38 0 0 0 .18 1.65 28.08 28.08 0 0 0 1.81 3.94 1.26 1.26 0 0 0 .41.5 1.2 1.2 0 0 0 .65.09c1.07 0 3.15-.18 3.66-1.37s-.77-2.8-1.4-3.6" fill="#f5a41d"/>
    <path d="M6.1 32.9a2.3 2.3 0 0 0-1.37 1.2 2.71 2.71 0 0 0 .32 2.15 9 9 0 0 0 2.37 2.88 1.88 1.88 0 0 0 .7.4 1.83 1.83 0 0 0 1.29-.28 4 4 0 0 0 1.86-2.18c1-3.14-2.44-5.24-5.17-4.17m-10.68 9.4a2.52 2.52 0 0 0-.89 1.61 2.53 2.53 0 0 0 .56 1.39 3.76 3.76 0 0 0 2.11 1.9c2.3.5 5.64-2.62 5-4.95-1.15-4.23-4.7-2.16-6.8 0m6.1 6.55a3.06 3.06 0 0 0 1.18 3.09 2.68 2.68 0 0 0 1.06.51c1.9.4 5.6-2.8 4.26-4.72s-5.86-1.23-6.5 1.12" fill="#e75225"/>
    <path d="M14.73 24.35a3.2 3.2 0 0 0-2.55-1.53A3.34 3.34 0 0 0 9.46 24 1.93 1.93 0 0 0 9 25.11a2.55 2.55 0 0 0 .47 1.39l1.08 1.63a2.85 2.85 0 0 0 .83.83 1.88 1.88 0 0 0 1.34.16c1.88-.38 3-3.15 2-4.77M4 24.9a3.39 3.39 0 0 0-1.2 1.24 2.46 2.46 0 0 0 0 1.65 6.81 6.81 0 0 0 .26.76A2.16 2.16 0 0 0 4 29.81a1.75 1.75 0 0 0 1 .1c3.6-.53 2.1-7.22-1-5m-3.18 6.4a3.29 3.29 0 0 0-2.54.23 2.17 2.17 0 0 0-1.07 2.21 3.68 3.68 0 0 0 1.52 1.93 1.93 1.93 0 0 0 1.07.52 1.81 1.81 0 0 0 1-.39 7.5 7.5 0 0 0 1.64-1.27c1.5-1.7.12-2.74-1.62-3.23M2 14.8a3.33 3.33 0 0 0-2.59 1 2.2 2.2 0 0 0-.2 2.52 2.1 2.1 0 0 0 2.36.87 3.19 3.19 0 0 0 1-.63C4.27 17.07 5 14.84 2 14.8m5-2.87a1.61 1.61 0 0 1-1.09.36 1.8 1.8 0 0 1-.84-.29 2.79 2.79 0 0 1-.68-3.94 2.25 2.25 0 0 1 .9-.69 2.05 2.05 0 0 1 2.64 1.31c-.14.17-.1 2.63-.9 3.25m1.75 2.97a3.77 3.77 0 0 0-1.19 2.69 2.74 2.74 0 0 0 .19 1.1A2.25 2.25 0 0 0 10.32 20a2.26 2.26 0 0 0 1.62-2.33 11.74 11.74 0 0 0-.65-2c-.24-.8.4-1.45-.4-1.77-.55-.22-1.75.64-2.1 1m-10-7.6a2.9 2.9 0 0 0-.21 3.7 1.64 1.64 0 0 0 .69.56c.87.37 1.8-.3 2.42-1a3.51 3.51 0 0 0 .8-1.35C3.15 6.76.44 5.6-1.2 7.3m3.9-5.95a4.07 4.07 0 0 1-1.28.23c-.5 0-1-.34-1.42 0A.87.87 0 0 0-.27 2a2.39 2.39 0 0 0 .73 2.23 1.23 1.23 0 0 0 .54.36 1.42 1.42 0 0 0 .58 0 3.89 3.89 0 0 0 2.55-1.68A1.14 1.14 0 0 0 2.7 1.36" fill="#f5a41d"/>
  </g>
</svg>