<?xml version="1.0" encoding="utf-8"?>
<svg viewBox="0 0 150 150" width="150" height="150" xmlns="http://www.w3.org/2000/svg">
  <path d="M78.94 29.8a20.06 20.06 0 0 0 2.55 3 18.71 18.71 0 0 0 3 2.54 8.44 8.44 0 0 1 5.18-6.6 3.22 3.22 0 0 1-4.16-4.17 8.45 8.45 0 0 1-6.61 5.19m24.13-2.1l7.4-7.42-3-3a4.24 4.24 0 0 0-6 0L90.8 28.05a3.27 3.27 0 0 1-1 .71A16.11 16.11 0 0 1 96 27.7zm-17.45-3.1a3.21 3.21 0 0 1 .69-1L97 12.77a4.22 4.22 0 0 0 0-6l-3-3-7.42 7.43v7a16.49 16.49 0 0 1-1 6.27m7.36 11.8a3.22 3.22 0 0 1 1.21-.23h15.23a4.2 4.2 0 0 0 4.2-4.22V27.7h-10.5l-5 5a16.23 16.23 0 0 1-5.18 3.69m-.05.03a8.43 8.43 0 0 1-8.34-1 19 19 0 0 0-.36 3.95 19 19 0 0 0 .36 4 8.43 8.43 0 0 1 8.34-1 3.2 3.2 0 0 1 0-5.88M103.07 51h10.5v-4.26a4.2 4.2 0 0 0-4.2-4.21H94.13a3.09 3.09 0 0 1-1.22-.25A16.58 16.58 0 0 1 98.1 46l5 5m-13.3-1h-.06.06m0 0a3 3 0 0 1 1 .69l10.76 10.76a4.24 4.24 0 0 0 6 0l3-3-7.4-7.43H96a16.51 16.51 0 0 1-6.27-1M84.5 43.4a18.65 18.65 0 0 0-3 2.53 20.06 20.06 0 0 0-2.55 3 8.49 8.49 0 0 1 6.62 5.2 3.2 3.2 0 0 1 4.14-4.17 8.45 8.45 0 0 1-5.17-6.6m2.1 24.1l7.42 7.43 3-3a4.22 4.22 0 0 0 0-6l-10.8-10.77a3.23 3.23 0 0 1-.7-1 16.33 16.33 0 0 1 1.06 6.28zM78 57.25v-.06.06m.94-8.4a22.41 22.41 0 0 0-7.89 0 8.5 8.5 0 0 1 1 8.35 3.19 3.19 0 0 1 5.87 0 8.54 8.54 0 0 1 1-8.34M63.37 67.4v10.5h4.22a4.22 4.22 0 0 0 4.21-4.22V58.46a3.27 3.27 0 0 1 .2-1.22 16.25 16.25 0 0 1-3.7 5.19l-5 5M78 57.25a3.22 3.22 0 0 1 .24 1.21v15.22a4.21 4.21 0 0 0 4.21 4.22h4.22V67.4l-5-5A16.23 16.23 0 0 1 78 57.25m-13.54-3.2V54v.05m6.66-5.24a20 20 0 0 0-2.54-3 19.06 19.06 0 0 0-3-2.54 8.48 8.48 0 0 1-5.18 6.6A3.2 3.2 0 0 1 64.44 54a8.5 8.5 0 0 1 6.61-5.19M46.93 51l-7.42 7.43 3 3a4.22 4.22 0 0 0 6 0L59.2 50.6a3.3 3.3 0 0 1 1-.7A16.29 16.29 0 0 1 54 51zm17.5 3.14a3.11 3.11 0 0 1-.69 1L53 65.88a4.21 4.21 0 0 0 0 6l3 3 7.42-7.43v-7a16.29 16.29 0 0 1 1.05-6.27m-7.34-11.8a3.22 3.22 0 0 1-1.21.24H40.65a4.21 4.21 0 0 0-4.22 4.21V51h10.5l5-5a16.39 16.39 0 0 1 5.18-3.69M46.93 27.7h-10.5v4.2a4.21 4.21 0 0 0 4.22 4.22h15.2a3.14 3.14 0 0 1 1.23.24 16.33 16.33 0 0 1-5.18-3.7l-5-5m18.56 15.6a19.82 19.82 0 0 0 .35-4 19.75 19.75 0 0 0-.35-3.95 8.43 8.43 0 0 1-8.34 1 3.2 3.2 0 0 1 0 5.88 8.43 8.43 0 0 1 8.34 1m-2.1-32L56 3.83l-3 3a4.21 4.21 0 0 0 0 5.95l10.73 10.75a3.15 3.15 0 0 1 .69 1 16.35 16.35 0 0 1-1.05-6.28zM72 21.42a.08.08 0 0 0 0 0m-11.8 7.33a3 3 0 0 1-1-.7L48.45 17.3a4.22 4.22 0 0 0-6 0l-3 3 7.42 7.42h7a16.29 16.29 0 0 1 6.27 1.05m5.23 6.63a19.6 19.6 0 0 0 3-2.54 20.08 20.08 0 0 0 2.54-3 8.5 8.5 0 0 1-6.61-5.19 3.21 3.21 0 0 1-4.15 4.17 8.46 8.46 0 0 1 5.18 6.6m20.25-10.87v.05-.05M71.05 29.8a19.82 19.82 0 0 0 4 .35 19.58 19.58 0 0 0 3.94-.35 8.47 8.47 0 0 1-1-8.33 3.2 3.2 0 0 1-5.88 0 8.46 8.46 0 0 1-1 8.34m1-8.38a3.33 3.33 0 0 1-.24-1.23V5A4.21 4.21 0 0 0 67.59.76h-4.2v10.5l5 5a16.07 16.07 0 0 1 3.7 5.2m14.55-10.2l-5 5A16.17 16.17 0 0 0 78 21.42a3.33 3.33 0 0 0 .24-1.23V5A4.21 4.21 0 0 1 82.41.76h4.22z" fill="#f5a51d" transform="matrix(1, 0, 0, 1, 0, 0)"/>
  <path d="M84.53 35.38a8.45 8.45 0 0 0 8.34 1 16.09 16.09 0 0 0 5.17-3.69l5-5H96a16.11 16.11 0 0 0-6.28 1.06 8.45 8.45 0 0 0-5.18 6.6m-5.6-5.55a8.45 8.45 0 0 0 6.61-5.19v-.05a16.45 16.45 0 0 0 1-6.27v-7l-5 5A16 16 0 0 0 78 21.42a8.47 8.47 0 0 0 1 8.33m5.6 13.48a8.47 8.47 0 0 0 5.17 6.6h.06A16.51 16.51 0 0 0 96 51h7l-5-5a16.44 16.44 0 0 0-5.18-3.7 8.43 8.43 0 0 0-8.34 1m-5.6 5.57a8.51 8.51 0 0 0-1 8.34v.06a16.39 16.39 0 0 0 3.69 5.18l5 5v-7a16.33 16.33 0 0 0-1.06-6.28 8.49 8.49 0 0 0-6.62-5.2m-7.9 0A8.5 8.5 0 0 0 64.44 54v.05a16.31 16.31 0 0 0-1 6.27v7l5-5A16.41 16.41 0 0 0 72 57.24a8.48 8.48 0 0 0-1-8.35m-5.58-5.57a8.43 8.43 0 0 0-8.34-1h-.05A16.39 16.39 0 0 0 51.9 46l-5 5h7a16.29 16.29 0 0 0 6.27-1.05 8.48 8.48 0 0 0 5.18-6.6m0-7.9a8.46 8.46 0 0 0-5.18-6.6A16.33 16.33 0 0 0 54 27.7h-7l5 5a16.46 16.46 0 0 0 5.19 3.7 8.46 8.46 0 0 0 8.34-1m5.58-5.58a8.5 8.5 0 0 1-6.61-5.19.06.06 0 0 1 0 0 16.16 16.16 0 0 1-1.05-6.28v-7l5 5A16.09 16.09 0 0 1 72 21.42a8.46 8.46 0 0 1-1 8.34M43.34 100a7.18 7.18 0 0 0-5.68 2.77 4.75 4.75 0 0 0-4.09-2.31h-4.13v22h8.9v-13.8a1.65 1.65 0 1 1 3.29 0V118a4.77 4.77 0 0 0 4.77 4.76h4.14v-15.53a7.21 7.21 0 0 0-7.21-7.23m84.8 11.5c0-5.73-2-11.54-8.65-11.54a8 8 0 0 0-4.78 1.41V96a4.75 4.75 0 0 0-4.71-4.79h-4.2v31.56h6.1a2.21 2.21 0 0 0 2.14-1.66 7.71 7.71 0 0 0 5.44 1.94c6.62 0 8.65-5.8 8.65-11.53m-12.22-5.63c2.34 0 3.06 2.63 3.06 5.2s-.72 5.2-3.06 5.2a2.53 2.53 0 0 1-1.2-.28v-9.83a2.42 2.42 0 0 1 1.2-.29m-16.8-3.8q2.27 2.1 2.27 6.6v14.07H95.9a2.22 2.22 0 0 1-2.21-2 8.12 8.12 0 0 1-5.94 2.13c-.93 0-7 0-7-6.83 0-4.26 3.4-7.8 12.22-7.8v-1c0-1.95-4.06-2.6-9.43.17l-1.14-2a2.51 2.51 0 0 1 .05-2.75c.46-.6 2.66-2.68 9.27-2.68 3.47 0 6 .7 7.44 2.07M93.1 112.3c-1.63 0-4.13.62-4.13 3.18a1.9 1.9 0 0 0 2.03 2.08 2.74 2.74 0 0 0 1.41-.36 1.17 1.17 0 0 0 .63-1.09zM55 93.87a4.48 4.48 0 1 0 4.48-4.47A4.49 4.49 0 0 0 55 93.87m4.16 6.6H55V118a4.77 4.77 0 0 0 4.78 4.76h4.13v-17.5a4.77 4.77 0 0 0-4.77-4.77m13.28-9.27h-4.17V118a4.77 4.77 0 0 0 4.75 4.77h4.14V96a4.76 4.76 0 0 0-4.77-4.77m68 8.8c-4 0-9.17 1.82-9.17 7.14s5.84 6.16 8.08 6.85c2.86.9 1.86 3.12-.42 3-4.27-.22-6.17-2.25-6.17-2.25l-1.15 2c-2.77 4.9 3.73 6.36 8.25 6.36 8.1 0 9.85-4.7 9.85-7.9 0-4.63-3.6-5.74-7.13-6.55-.72-.16-2.5-.58-2.5-1.76 0-2.34 5.3-1 7.86.94l1.37-2.52c1.52-3.4-3.86-5.3-8.87-5.3M25 92.24v18.6c0 10.76-6.1 12.58-12.34 12.58S.32 121.6.32 110.83v-18.6h4.46a4.47 4.47 0 0 1 4.47 4.47v16.14a3.39 3.39 0 0 0 6.78 0V96.7a4.48 4.48 0 0 1 4.48-4.47z" fill="#e33626" transform="matrix(1, 0, 0, 1, 0, 0)"/>
  <path d="M147 140.06a.74.74 0 0 0-.64.31 1.65 1.65 0 0 0-.26.8h1.7v-.15a1.13 1.13 0 0 0-.2-.73.72.72 0 0 0-.61-.26m.14 5a2.91 2.91 0 0 1-2.22-.87 3.06 3.06 0 0 1-.9-2.16v-.22a3.55 3.55 0 0 1 .75-2.34 3 3 0 0 1 4.16-.14 2.88 2.88 0 0 1 .73 2.08v1h-3.6a1.27 1.27 0 0 0 .39.79 1.23 1.23 0 0 0 .88.31 3.62 3.62 0 0 0 .9-.09 7.48 7.48 0 0 0 .84-.3l.47 1.2a3.55 3.55 0 0 1-1.07.5 4.83 4.83 0 0 1-1.4.2m-7.57-6.4l.07.88a2.23 2.23 0 0 1 .77-.73 1.91 1.91 0 0 1 1-.27 1.8 1.8 0 0 1 1.44.6 2.87 2.87 0 0 1 .52 1.91V145h-2v-3.9a1 1 0 0 0-.23-.76.9.9 0 0 0-.66-.23 1.21 1.21 0 0 0-.48.1 1.25 1.25 0 0 0-.37.28V145h-1.95v-6.3zm-4.64 5.55a2 2 0 0 1-1.73.86 1.94 1.94 0 0 1-1.54-.63 2.85 2.85 0 0 1-.55-1.94v-3.84h2v3.85a1.33 1.33 0 0 0 .2.79.68.68 0 0 0 .57.26 1.51 1.51 0 0 0 .55-.09 1 1 0 0 0 .41-.26v-4.55h2V145H135zm-9.2-1a.49.49 0 0 0-.26-.41 2.6 2.6 0 0 0-1-.33 3.85 3.85 0 0 1-1.66-.67 1.52 1.52 0 0 1-.56-1.24 1.8 1.8 0 0 1 .7-1.41 2.88 2.88 0 0 1 1.89-.58 3.27 3.27 0 0 1 2 .56 1.66 1.66 0 0 1 .71 1.45h-1.9a.73.73 0 0 0-.19-.56.83.83 0 0 0-.61-.2.8.8 0 0 0-.51.17.53.53 0 0 0-.21.43.52.52 0 0 0 .24.43 2.77 2.77 0 0 0 1 .31 3.92 3.92 0 0 1 1.71.68 1.53 1.53 0 0 1 .55 1.27 1.66 1.66 0 0 1-.75 1.4 3.28 3.28 0 0 1-2 .55 3 3 0 0 1-2-.65 1.76 1.76 0 0 1-.71-1.45h1.78a.75.75 0 0 0 .27.65 1.18 1.18 0 0 0 .73.19 1 1 0 0 0 .6-.15.5.5 0 0 0 .2-.44m-8.06-1.3a2.52 2.52 0 0 0 .25 1.24.87.87 0 0 0 .84.45.86.86 0 0 0 .82-.45 2.58 2.58 0 0 0 .25-1.24v-.12a2.56 2.56 0 0 0-.25-1.23 1 1 0 0 0-1.66 0 2.56 2.56 0 0 0-.25 1.23zm-2-.12a3.28 3.28 0 0 1 .8-2.31 3.24 3.24 0 0 1 4.48 0 3.28 3.28 0 0 1 .8 2.31v.12a3.28 3.28 0 0 1-.8 2.31 3.26 3.26 0 0 1-4.48 0 3.28 3.28 0 0 1-.8-2.31zm-4.5-3.1l.08.88a2.21 2.21 0 0 1 .76-.73 1.93 1.93 0 0 1 1-.27 1.82 1.82 0 0 1 1.45.6 2.93 2.93 0 0 1 .52 1.91v4h-2v-3.9a1 1 0 0 0-.22-.76.9.9 0 0 0-.66-.23 1.26 1.26 0 0 0-.49.1 1.09 1.09 0 0 0-.36.28V145h-2v-6.3zm-8 1.4a.73.73 0 0 0-.63.31 1.65 1.65 0 0 0-.26.8H104v-.15a1.2 1.2 0 0 0-.2-.73.74.74 0 0 0-.62-.26m.14 5a2.91 2.91 0 0 1-2.21-.87 3 3 0 0 1-.83-2.19v-.22a3.55 3.55 0 0 1 .75-2.34 3 3 0 0 1 4.16-.14 2.93 2.93 0 0 1 .73 2.08v1h-3.6a1.28 1.28 0 0 0 .4.79 1.21 1.21 0 0 0 .88.31 3.53 3.53 0 0 0 .89-.09 6.9 6.9 0 0 0 .85-.3l.46 1.2a3.49 3.49 0 0 1-1.06.5 5 5 0 0 1-1.41.2m-5.63-.86a2.16 2.16 0 0 1-.74.64 2.19 2.19 0 0 1-1 .22 1.93 1.93 0 0 1-1.53-.63 2.85 2.85 0 0 1-.55-1.94v-3.84h2v3.85a1.26 1.26 0 0 0 .2.79.68.68 0 0 0 .57.26 1.55 1.55 0 0 0 .55-.09 1 1 0 0 0 .41-.26v-4.55h2v6.5h-1.8zM89.05 142a2.58 2.58 0 0 0 .22 1.19.78.78 0 0 0 .76.43 1.4 1.4 0 0 0 .56-.1.86.86 0 0 0 .37-.31v-2.6a.91.91 0 0 0-.37-.36 1.21 1.21 0 0 0-.55-.13.8.8 0 0 0-.76.49 3 3 0 0 0-.23 1.28zm-2-.12a4 4 0 0 1 .64-2.38 2.09 2.09 0 0 1 1.81-.9 1.58 1.58 0 0 1 .87.24 2 2 0 0 1 .66.67l.15-.8h1.7v8.7H91v-3a1.73 1.73 0 0 1-1.43.7 2.14 2.14 0 0 1-1.81-.86 3.75 3.75 0 0 1-.63-2.27zm-6.35 1.85a1.19 1.19 0 0 0 .54-.12 1 1 0 0 0 .39-.3v-1H81a.9.9 0 0 0-.68.23.8.8 0 0 0-.21.57.55.55 0 0 0 .18.43.63.63 0 0 0 .47.17M82 145q-.08-.15-.15-.33c0-.13-.08-.25-.1-.4a2.19 2.19 0 0 1-.67.62 1.85 1.85 0 0 1-1 .23 2 2 0 0 1-1.46-.52 1.78 1.78 0 0 1-.56-1.37 1.68 1.68 0 0 1 .7-1.45 3.64 3.64 0 0 1 2.13-.51h.7v-.45a.92.92 0 0 0-.18-.61.78.78 0 0 0-.59-.22.73.73 0 0 0-.5.16.69.69 0 0 0-.17.5h-1.9a1.64 1.64 0 0 1 .72-1.44 3.23 3.23 0 0 1 2-.58 3 3 0 0 1 1.88.58 2 2 0 0 1 .73 1.67v2.37a4.48 4.48 0 0 0 .08.93 5.27 5.27 0 0 0 .34.81zm-6.88-1.38a.73.73 0 0 0 .58-.21.94.94 0 0 0 .2-.64h1.8a2 2 0 0 1-.71 1.67 2.73 2.73 0 0 1-1.87.65 2.78 2.78 0 0 1-2.21-.89 3.37 3.37 0 0 1-.78-2.31v-.13a3.36 3.36 0 0 1 .78-2.3 3.09 3.09 0 0 1 4.1-.23 2.28 2.28 0 0 1 .69 1.82h-1.75a1.24 1.24 0 0 0-.2-.73.68.68 0 0 0-.6-.29.81.81 0 0 0-.78.46 2.84 2.84 0 0 0-.23 1.23v.13a2.8 2.8 0 0 0 .23 1.24.81.81 0 0 0 .8.45M71.43 145h-2v-6.3h2zm0-7.75h-2v-1.32h2zm-10.28 1.46l.07.83a2.09 2.09 0 0 1 .75-.7 2.15 2.15 0 0 1 1-.25 1.92 1.92 0 0 1 1 .26 1.57 1.57 0 0 1 .64.78 2 2 0 0 1 1.81-1 1.79 1.79 0 0 1 1.45.63 3 3 0 0 1 .52 1.95v3.8h-2v-3.83a1.33 1.33 0 0 0-.19-.84.68.68 0 0 0-.56-.23 1.19 1.19 0 0 0-.51.11 1.1 1.1 0 0 0-.37.28v4.5h-2v-3.83a1.41 1.41 0 0 0-.18-.84.72.72 0 0 0-.58-.23 1.14 1.14 0 0 0-.49.11 1.1 1.1 0 0 0-.37.28v4.5h-2v-6.3zm-2.92 6.3h-2v-6.3h2zm-.8-8.63h2l-1.63 1.5h-1.6zm-4.05 7.9a2 2 0 0 1-1.73.86 2 2 0 0 1-1.54-.63 2.9 2.9 0 0 1-.55-1.94v-3.84h2v3.85a1.33 1.33 0 0 0 .2.79.68.68 0 0 0 .57.26 1.55 1.55 0 0 0 .55-.09 1 1 0 0 0 .41-.26v-4.55h2v6.3h-1.8zM44.72 142a2.56 2.56 0 0 0 .23 1.19.77.77 0 0 0 .75.43 1.37 1.37 0 0 0 .56-.1 1 1 0 0 0 .38-.31v-2.6a1 1 0 0 0-.38-.36 1.18 1.18 0 0 0-.55-.13.78.78 0 0 0-.75.49 2.86 2.86 0 0 0-.24 1.28zm-2-.12a4 4 0 0 1 .64-2.38 2.09 2.09 0 0 1 1.81-.9 1.64 1.64 0 0 1 .88.24 2.09 2.09 0 0 1 .65.67l.16-.8h1.7v8.7h-2v-3a1.83 1.83 0 0 1-.63.52 1.79 1.79 0 0 1-.81.18 2.11 2.11 0 0 1-1.8-.86 3.68 3.68 0 0 1-.64-2.27zm-6.34 1.85a1.18 1.18 0 0 0 .53-.12 1 1 0 0 0 .4-.3v-1h-.7a.9.9 0 0 0-.68.23.8.8 0 0 0-.21.57.55.55 0 0 0 .18.43.66.66 0 0 0 .48.17m1.33 1.3a3.73 3.73 0 0 1-.26-.72 2.08 2.08 0 0 1-.67.62 1.85 1.85 0 0 1-1 .23 2.06 2.06 0 0 1-1.46-.52 1.78 1.78 0 0 1-.56-1.37 1.68 1.68 0 0 1 .7-1.45 3.64 3.64 0 0 1 2.13-.51h.72v-.45a.93.93 0 0 0-.19-.61.76.76 0 0 0-.59-.22.73.73 0 0 0-.5.16.69.69 0 0 0-.17.5H34a1.66 1.66 0 0 1 .72-1.44 3.23 3.23 0 0 1 2-.58 3 3 0 0 1 1.88.58 2 2 0 0 1 .73 1.67v2.37a5.28 5.28 0 0 0 .08.93 4.47 4.47 0 0 0 .26.86zm-11.87-6.28l.07.83a2.06 2.06 0 0 1 1.78-.95 1.92 1.92 0 0 1 1 .26 1.52 1.52 0 0 1 .64.78 2.22 2.22 0 0 1 .75-.77 2 2 0 0 1 1.07-.27 1.77 1.77 0 0 1 1.44.63 3 3 0 0 1 .53 1.95V145h-2v-3.83a1.4 1.4 0 0 0-.19-.84.72.72 0 0 0-.57-.23 1.12 1.12 0 0 0-.5.11.93.93 0 0 0-.37.28.91.91 0 0 0 0 .17V145h-2v-3.83a1.4 1.4 0 0 0-.19-.84.71.71 0 0 0-.58-.23 1.13 1.13 0 0 0-.48.11.93.93 0 0 0-.37.28v4.5H24v-6.3zm-4.66 5.55a2.16 2.16 0 0 1-.74.64 2.12 2.12 0 0 1-1 .22 1.93 1.93 0 0 1-1.53-.63 2.84 2.84 0 0 1-.56-1.94v-3.84h2v3.85a1.33 1.33 0 0 0 .2.79.71.71 0 0 0 .58.26 1.59 1.59 0 0 0 .55-.09 1 1 0 0 0 .4-.26v-4.55h2V145H21.3zm-10.37-.54a1.18 1.18 0 0 0 .53-.12.94.94 0 0 0 .4-.3v-1H11a.9.9 0 0 0-.68.23.8.8 0 0 0-.21.57.55.55 0 0 0 .18.43.66.66 0 0 0 .48.17m.42-7.47h2l-1.63 1.5H10zm.9 8.76a3.73 3.73 0 0 1-.26-.72 2.08 2.08 0 0 1-.67.62 1.85 1.85 0 0 1-1 .23 2.06 2.06 0 0 1-1.46-.52 1.78 1.78 0 0 1-.56-1.37 1.68 1.68 0 0 1 .7-1.45 3.64 3.64 0 0 1 2.13-.51h.72v-.45a.93.93 0 0 0-.19-.61.76.76 0 0 0-.51-.22.73.73 0 0 0-.5.16.68.68 0 0 0-.16.5H8.4a1.66 1.66 0 0 1 .72-1.44 3.23 3.23 0 0 1 2-.58 3 3 0 0 1 1.88.58 2 2 0 0 1 .73 1.67v2.37a5.28 5.28 0 0 0 .08.93 4.47 4.47 0 0 0 .26.86zm-4.72 0h-2v-3.4H2.3v3.4h-2v-8.47h2V140h3.13v-3.55h2z" fill="#585757" transform="matrix(1, 0, 0, 1, 0, 0)"/>
</svg>